<?xml version="1.0" standalone="no"?>
<!DOCTYPE svg PUBLIC "-//W3C//DTD SVG 20010904//EN"
 "http://www.w3.org/TR/2001/REC-SVG-20010904/DTD/svg10.dtd">
<svg version="1.0" xmlns="http://www.w3.org/2000/svg"
 width="160.000000pt" height="160.000000pt" viewBox="0 0 160.000000 160.000000"
 preserveAspectRatio="xMidYMid meet">
<metadata>
Created by potrace 1.11, written by Peter Selinger 2001-2013
</metadata>
<g transform="translate(0.000000,160.000000) scale(0.100000,-0.100000)"
fill="#000000" stroke="none">
<path d="M164 1406 c7 -29 23 -71 37 -92 26 -43 94 -113 133 -139 36 -24 28
-50 -25 -84 -63 -40 -121 -102 -201 -214 -76 -106 -78 -118 -15 -132 17 -4 34
-9 37 -10 11 -4 146 -19 163 -18 23 1 22 -12 -4 -49 -18 -24 -22 -46 -24 -126
-1 -53 2 -108 7 -122 12 -36 56 -77 111 -103 24 -12 72 -48 105 -79 89 -83
171 -119 279 -123 56 -2 102 2 132 12 25 8 53 17 61 19 8 3 17 6 20 6 13 1
121 83 144 108 14 16 50 41 80 55 60 29 115 84 117 118 9 144 -2 219 -37 258
-14 15 -14 19 -3 20 8 1 23 3 34 4 11 2 47 6 80 10 33 4 68 11 78 16 9 6 17 7
17 4 0 -3 14 1 30 10 33 17 37 29 18 49 -7 7 -22 25 -33 40 -100 138 -165 209
-224 246 -52 32 -61 56 -29 78 85 58 178 193 178 259 l0 33 -38 -19 c-63 -32
-117 -43 -277 -57 -38 -3 -79 -7 -90 -8 -11 -1 -30 1 -43 6 -69 24 -264 25
-372 1 -36 -8 -174 -1 -245 11 -82 15 -106 22 -152 42 -28 13 -54 24 -56 24
-3 0 0 -24 7 -54z"/>
</g>
</svg>
